<svg id="_507257" data-name="507257" xmlns="http://www.w3.org/2000/svg" width="19.334" height="19.308" viewBox="0 0 19.334 19.308">
  <g id="Group_1" data-name="Group 1">
    <path id="Path_1" data-name="Path 1" d="M18.171,39.916a1.191,1.191,0,0,0-.239-.021H4.293l.3-.161a2.813,2.813,0,0,0,.782-.644L9.2,34.635A1.874,1.874,0,0,0,9.4,32.5a1.261,1.261,0,0,0-1.933-.348,1.462,1.462,0,0,0-.142.139L.405,40.346a1.8,1.8,0,0,0,0,2.278h0L7.322,50.68a1.25,1.25,0,0,0,1.956,0,1.567,1.567,0,0,0,.119-.158,1.874,1.874,0,0,0-.2-2.134L5.378,43.922a2.831,2.831,0,0,0-.692-.588l-.415-.217H17.856a1.5,1.5,0,0,0,1.459-1.353A1.6,1.6,0,0,0,18.171,39.916Z" transform="translate(0 -31.842)" fill="#00c5b8"/>
  </g>
</svg>
