<svg id="diverso" xmlns="http://www.w3.org/2000/svg" width="12.305" height="13.093" viewBox="0 0 12.305 13.093">
  <g id="Group_238" data-name="Group 238">
    <path id="Path_161" data-name="Path 161" d="M26.539,3.766a.546.546,0,0,0-.772,0l-6.558,6.593a2.182,2.182,0,0,1-3.085-3.087L22.876.487A1.364,1.364,0,0,1,24.8,2.417L19.21,8.011h0a.545.545,0,0,1-.77-.772l2.7-2.7a.546.546,0,1,0-.772-.771l-2.7,2.7a1.636,1.636,0,0,0,2.314,2.314l0,0,5.591-5.591A2.455,2.455,0,0,0,22.1-.283L15.352,6.5a3.273,3.273,0,0,0,4.63,4.628l6.559-6.594A.546.546,0,0,0,26.539,3.766Z" transform="translate(-14.394 1.002)" fill="#00c5b8"/>
  </g>
</svg>
