<svg id="_1177568" data-name="1177568" xmlns="http://www.w3.org/2000/svg" width="62.722" height="62.722" viewBox="0 0 62.722 62.722">
  <path id="Path_45" data-name="Path 45" d="M62.722,31.361A31.361,31.361,0,1,1,31.361,0,31.361,31.361,0,0,1,62.722,31.361Zm0,0" fill="#02aa9e"/>
  <path id="Path_46" data-name="Path 46" d="M117.379,94.87a11.877,11.877,0,1,0-14.26,0A20.381,20.381,0,0,0,89.9,113.927h3.675a16.673,16.673,0,0,1,33.345,0H130.6A20.382,20.382,0,0,0,117.38,94.87Zm-15.332-9.493a8.2,8.2,0,1,1,8.2,8.2A8.21,8.21,0,0,1,102.048,85.377Zm0,0" transform="translate(-78.889 -64.496)" fill="#fff"/>
</svg>
