<svg id="_1177568" data-name="1177568" xmlns="http://www.w3.org/2000/svg" width="36.192" height="36.192" viewBox="0 0 36.192 36.192">
  <path id="Path_45" data-name="Path 45" d="M36.192,18.1A18.1,18.1,0,1,1,18.1,0,18.1,18.1,0,0,1,36.192,18.1Zm0,0" fill="#57fff5"/>
  <path id="Path_46" data-name="Path 46" d="M105.757,85.831a6.853,6.853,0,1,0-8.228,0,11.76,11.76,0,0,0-7.627,11h2.121a9.62,9.62,0,0,1,19.241,0h2.121a11.761,11.761,0,0,0-7.627-11ZM96.91,80.354a4.732,4.732,0,1,1,4.732,4.733A4.738,4.738,0,0,1,96.91,80.354Zm0,0" transform="translate(-83.547 -69.305)" fill="#00c7b9"/>
</svg>
