<svg xmlns="http://www.w3.org/2000/svg" width="26.146" height="24.951" viewBox="0 0 26.146 24.951">
  <g id="_935970" data-name="935970" transform="translate(0 -10.1)">
    <g id="Group_21" data-name="Group 21" transform="translate(12.36 10.1)">
      <g id="Group_20" data-name="Group 20" transform="translate(0 0)">
        <path id="Path_28" data-name="Path 28" d="M208.9,10.1v4.325l3.526-3.526A10.477,10.477,0,0,0,208.9,10.1Z" transform="translate(-208.9 -10.1)" fill="#02aa9e"/>
      </g>
    </g>
    <g id="Group_23" data-name="Group 23" transform="translate(12.969 13.443)">
      <g id="Group_22" data-name="Group 22">
        <path id="Path_29" data-name="Path 29" d="M225.643,66.6,219.2,73.061h3.39l4.467-4.491A10.591,10.591,0,0,0,225.643,66.6Z" transform="translate(-219.2 -66.6)" fill="#02aa9e"/>
      </g>
    </g>
    <g id="Group_25" data-name="Group 25" transform="translate(12.36 11.337)">
      <g id="Group_24" data-name="Group 24" transform="translate(0 0)">
        <path id="Path_30" data-name="Path 30" d="M213.314,31,208.9,35.426v3.4l6.408-6.414A10.651,10.651,0,0,0,213.314,31Z" transform="translate(-208.9 -31)" fill="#02aa9e"/>
      </g>
    </g>
    <g id="Group_27" data-name="Group 27" transform="translate(17.703 16.33)">
      <g id="Group_26" data-name="Group 26" transform="translate(0 0)">
        <path id="Path_31" data-name="Path 31" d="M302.768,115.4l-3.568,3.574h4.39A10.221,10.221,0,0,0,302.768,115.4Z" transform="translate(-299.2 -115.4)" fill="#02aa9e"/>
      </g>
    </g>
    <g id="Group_29" data-name="Group 29" transform="translate(16.324 24.105)">
      <g id="Group_28" data-name="Group 28" transform="translate(0 0)">
        <path id="Path_32" data-name="Path 32" d="M284.42,246.8H277.2a1.3,1.3,0,0,0-1.3,1.3v8.343a1.3,1.3,0,0,0,1.3,1.3h7.218a1.3,1.3,0,0,0,1.3-1.3V248.1A1.3,1.3,0,0,0,284.42,246.8Zm-7.869,1.124a.475.475,0,0,1,.473-.473h7.514a.475.475,0,0,1,.473.473v1.834a.475.475,0,0,1-.473.473h-7.514a.475.475,0,0,1-.473-.473Zm1.887,8.934h-1.39a.473.473,0,1,1,0-.947h1.39a.473.473,0,0,1,0,.947Zm0-2.367h-1.39a.473.473,0,1,1,0-.947h1.39a.473.473,0,0,1,0,.947Zm0-2.426h-1.39a.473.473,0,1,1,0-.947h1.39a.473.473,0,0,1,0,.947Zm3.047,4.793h-1.39a.473.473,0,0,1,0-.947h1.39a.473.473,0,0,1,0,.947Zm0-2.367h-1.39a.473.473,0,0,1,0-.947h1.39a.473.473,0,0,1,0,.947Zm0-2.426h-1.39a.473.473,0,0,1,0-.947h1.39a.473.473,0,0,1,0,.947Zm3.059,4.793h-1.39a.473.473,0,1,1,0-.947h1.39a.473.473,0,0,1,0,.947Zm0-2.367h-1.39a.473.473,0,1,1,0-.947h1.39a.473.473,0,0,1,0,.947Zm0-2.426h-1.39a.473.473,0,1,1,0-.947h1.39a.473.473,0,0,1,0,.947Z" transform="translate(-275.9 -246.8)" fill="#02aa9e"/>
      </g>
    </g>
    <g id="Group_31" data-name="Group 31" transform="translate(17.922 25.702)">
      <g id="Group_30" data-name="Group 30">
        <rect id="Rectangle_21" data-name="Rectangle 21" width="6.568" height="0.888" fill="#02aa9e"/>
      </g>
    </g>
    <g id="Group_33" data-name="Group 33" transform="translate(0 11.644)">
      <g id="Group_32" data-name="Group 32" transform="translate(0 0)">
        <path id="Path_33" data-name="Path 33" d="M20.484,46.945H10.248a.522.522,0,0,1-.491-.509V36.2a10.187,10.187,0,0,0-6.769,2.988A10.261,10.261,0,0,0,15.372,55.323V49.945A2.231,2.231,0,0,1,17.6,47.714h2.822C20.448,47.477,20.472,47.181,20.484,46.945Z" transform="translate(0 -36.2)" fill="#02aa9e"/>
      </g>
    </g>
  </g>
</svg>
