<svg xmlns="http://www.w3.org/2000/svg" width="14.5" height="14.5" viewBox="0 0 14.5 14.5">
  <g id="Group_262" data-name="Group 262" transform="translate(-32.5 -385.5)">
    <g id="_2258582" data-name="2258582" transform="translate(32.5 385.5)">
      <path id="Path_59" data-name="Path 59" d="M321.505,319.2a2.305,2.305,0,1,0,2.305,2.305A2.308,2.308,0,0,0,321.505,319.2Zm.91,2.73h-.91a.425.425,0,0,1-.425-.425v-.91a.425.425,0,1,1,.85,0v.485h.485a.425.425,0,0,1,0,.85Z" transform="translate(-310.16 -310.16)" fill="#00c5b8"/>
      <path id="Path_60" data-name="Path 60" d="M0,166.981a1.564,1.564,0,0,0,1.562,1.562h9.783a3.155,3.155,0,1,1,3.155-3.155v-6.855H0Zm11.5-6.9a.425.425,0,1,1-.124.3A.428.428,0,0,1,11.5,160.083Zm-1.82,0a.425.425,0,1,1-.124.3A.429.429,0,0,1,9.679,160.083ZM8.46,162.5a.424.424,0,1,1,.125-.3A.428.428,0,0,1,8.46,162.5Zm-.6-2.421a.424.424,0,1,1-.125.3A.428.428,0,0,1,7.86,160.083Zm-1.82,0a.425.425,0,1,1-.124.3A.428.428,0,0,1,6.039,160.083Zm0,1.82a.425.425,0,1,1-.124.3A.428.428,0,0,1,6.039,161.9Zm0,1.82a.425.425,0,1,1-.124.3A.428.428,0,0,1,6.039,163.723Zm0,1.82a.425.425,0,1,1-.124.3A.428.428,0,0,1,6.039,165.543Zm-1.82-5.46a.425.425,0,1,1-.124.3A.428.428,0,0,1,4.219,160.083Zm0,1.82a.424.424,0,1,1-.125.3A.427.427,0,0,1,4.22,161.9Zm0,1.82a.425.425,0,1,1-.125.3A.427.427,0,0,1,4.22,163.723Zm0,1.82a.424.424,0,1,1-.125.3A.427.427,0,0,1,4.22,165.543ZM2.4,161.9a.425.425,0,1,1-.124.3A.428.428,0,0,1,2.4,161.9Zm0,1.82a.425.425,0,1,1-.124.3A.427.427,0,0,1,2.4,163.723Zm0,1.82a.424.424,0,1,1-.125.3A.428.428,0,0,1,2.4,165.543Z" transform="translate(0 -154.043)" fill="#00c5b8"/>
      <path id="Path_61" data-name="Path 61" d="M12.938.91H11.923V.425a.425.425,0,0,0-.85,0V.91h-.85V.425a.425.425,0,0,0-.85,0V.91h-.85V.425a.425.425,0,0,0-.85,0V.91h-.85V.425a.425.425,0,0,0-.85,0V.91h-.85V.425a.425.425,0,0,0-.85,0V.91h-.85V.425a.425.425,0,0,0-.85,0V.91H1.562A1.564,1.564,0,0,0,0,2.472V3.64H14.5V2.472A1.564,1.564,0,0,0,12.938.91Z" transform="translate(0)" fill="#00c5b8"/>
    </g>
  </g>
</svg>
