<svg xmlns="http://www.w3.org/2000/svg" width="17.688" height="19.737" viewBox="0 0 17.688 19.737">
  <g id="_1001371" data-name="1001371" transform="translate(-26.57)">
    <g id="Group_37" data-name="Group 37" transform="translate(26.57)">
      <g id="Group_36" data-name="Group 36" transform="translate(0)">
        <path id="Path_47" data-name="Path 47" d="M115.942,200.771a.771.771,0,0,0-.771-.771H107.23a.771.771,0,1,0,0,1.542h7.941A.771.771,0,0,0,115.942,200.771Z" transform="translate(-103.379 -192.29)" fill="#00c5b8"/>
        <path id="Path_48" data-name="Path 48" d="M107.23,280a.771.771,0,0,0,0,1.542h4.823a.771.771,0,0,0,0-1.542Z" transform="translate(-103.379 -269.206)" fill="#00c5b8"/>
        <path id="Path_49" data-name="Path 49" d="M32.232,18.195H29.654a1.544,1.544,0,0,1-1.542-1.542V3.084a1.544,1.544,0,0,1,1.542-1.542h9.479a1.544,1.544,0,0,1,1.542,1.542V7.825a.771.771,0,1,0,1.542,0V3.084A3.087,3.087,0,0,0,39.133,0H29.654A3.087,3.087,0,0,0,26.57,3.084V16.653a3.087,3.087,0,0,0,3.084,3.084h2.578a.771.771,0,0,0,0-1.542Z" transform="translate(-26.57)" fill="#00c5b8"/>
        <path id="Path_50" data-name="Path 50" d="M252.108,272.7a2.315,2.315,0,0,0-3.27,0l-4.233,4.223a.771.771,0,0,0-.193.322l-.922,3.035a.771.771,0,0,0,.944.967l3.112-.862a.771.771,0,0,0,.339-.2l4.224-4.216A2.316,2.316,0,0,0,252.108,272.7Zm-5.17,6.252-1.566.434.458-1.508,2.856-2.85,1.091,1.091Zm4.08-4.072-.149.149-1.09-1.09.149-.149a.771.771,0,0,1,1.091,1.09Z" transform="translate(-235.096 -261.538)" fill="#00c5b8"/>
        <path id="Path_51" data-name="Path 51" d="M115.171,120H107.23a.771.771,0,1,0,0,1.542h7.941a.771.771,0,0,0,0-1.542Z" transform="translate(-103.379 -115.374)" fill="#00c5b8"/>
      </g>
    </g>
  </g>
</svg>
