<svg xmlns="http://www.w3.org/2000/svg" width="22.661" height="22.661" viewBox="0 0 22.661 22.661">
  <g id="_69962" data-name="69962" transform="translate(0 -2.428)">
    <g id="Icons_19_" transform="translate(0 2.428)">
      <path id="Path_44" data-name="Path 44" d="M22.217,12.582,12.75,3.02a2,2,0,0,0-2.839,0L.444,12.582a1.542,1.542,0,0,0,0,2.165,1.5,1.5,0,0,0,2.144,0l1.283-1.3V23.458A1.623,1.623,0,0,0,5.486,25.09H8.937V20.543a.637.637,0,0,1,.634-.64h3.521a.637.637,0,0,1,.634.64V25.09h3.45a1.623,1.623,0,0,0,1.615-1.631V13.451l1.283,1.3a1.5,1.5,0,0,0,2.144,0A1.541,1.541,0,0,0,22.217,12.582Z" transform="translate(0 -2.428)" fill="#00c5b8"/>
    </g>
  </g>
</svg>
