<svg id="_942751" data-name="942751" xmlns="http://www.w3.org/2000/svg" width="29.615" height="30.552" viewBox="0 0 29.615 30.552">
  <path id="Path_34" data-name="Path 34" d="M25.964,184H13.47A3.527,3.527,0,0,0,10,187.58v9.189a3.527,3.527,0,0,0,3.47,3.58h3.758l-.052,0,2.54,2.621,0-2.626h6.245a3.527,3.527,0,0,0,3.47-3.58V187.58A3.527,3.527,0,0,0,25.964,184Z" transform="translate(-9.422 -173.02)" fill="#dbdbdb"/>
  <path id="Path_35" data-name="Path 35" d="M10.3,194.169a.569.569,0,0,1-.409-.175l-2.376-2.451H4.049A4.119,4.119,0,0,1,0,187.366v-9.189A4.119,4.119,0,0,1,4.049,174H9.891a.6.6,0,0,1,0,1.193H4.049a2.942,2.942,0,0,0-2.892,2.984v9.189a2.942,2.942,0,0,0,2.892,2.984H7.807a.578.578,0,0,1,.53.359l1.381,1.424v-1.186a.588.588,0,0,1,.578-.6h6.245a2.942,2.942,0,0,0,2.892-2.984v-4.117a.579.579,0,1,1,1.157,0v4.117a4.119,4.119,0,0,1-4.049,4.177H10.875v2.029a.6.6,0,0,1-.357.551A.563.563,0,0,1,10.3,194.169Z" transform="translate(0 -163.617)" fill="#fff"/>
  <path id="Path_36" data-name="Path 36" d="M215.292,10h-1.464A7.955,7.955,0,0,0,206,18.076h0a7.955,7.955,0,0,0,7.829,8.076h1.464a7.605,7.605,0,0,0,2.3-.355l2.4,2.477V24.531a8.151,8.151,0,0,0,3.123-6.455h0A7.955,7.955,0,0,0,215.292,10Z" transform="translate(-194.085 -9.403)" fill="#dbdbdb"/>
  <path id="Path_37" data-name="Path 37" d="M210.576,19.468a.57.57,0,0,1-.409-.175L208,17.064a8.179,8.179,0,0,1-2.134.282h-1.464A8.553,8.553,0,0,1,196,8.673,8.553,8.553,0,0,1,204.407,0h1.464a8.553,8.553,0,0,1,8.407,8.673,8.8,8.8,0,0,1-.914,3.935,8.709,8.709,0,0,1-2.21,2.811v3.452a.6.6,0,0,1-.357.551A.562.562,0,0,1,210.576,19.468Zm-2.4-3.671a.57.57,0,0,1,.409.175L210,17.431v-2.3a.6.6,0,0,1,.23-.477,7.506,7.506,0,0,0,2.893-5.978,7.376,7.376,0,0,0-7.25-7.48h-1.464a7.376,7.376,0,0,0-7.25,7.48,7.376,7.376,0,0,0,7.25,7.48h1.464A7.047,7.047,0,0,0,208,15.824.562.562,0,0,1,208.173,15.8Z" transform="translate(-184.663)" fill="#fff"/>
  <path id="Path_38" data-name="Path 38" d="M316.911,77.028a.588.588,0,0,1-.578-.6V75a1.122,1.122,0,0,1,.862-1.107A1.34,1.34,0,0,0,317,71.26a1.259,1.259,0,0,0-.974.355,1.34,1.34,0,0,0-.411.975.579.579,0,1,1-1.157,0,2.573,2.573,0,0,1,.778-1.847,2.386,2.386,0,0,1,1.843-.673,2.539,2.539,0,0,1,.406,4.975v1.386A.588.588,0,0,1,316.911,77.028Z" transform="translate(-296.273 -65.882)" fill="#fff"/>
  <path id="Path_39" data-name="Path 39" d="M347.378,207.523a.573.573,0,0,1-.409-.174.611.611,0,0,1,0-.844.566.566,0,0,1,.818,0,.611.611,0,0,1,0,.844A.573.573,0,0,1,347.378,207.523Z" transform="translate(-326.741 -194.018)" fill="#fff"/>
  <path id="Path_40" data-name="Path 40" d="M66.783,311.193h-12.2a.6.6,0,0,1,0-1.193h12.2a.6.6,0,0,1,0,1.193Z" transform="translate(-50.877 -291.502)" fill="#fff"/>
  <path id="Path_41" data-name="Path 41" d="M265.578,367.193a.574.574,0,0,1-.409-.175.61.61,0,0,1,0-.844.566.566,0,0,1,.818,0,.61.61,0,0,1,0,.844A.574.574,0,0,1,265.578,367.193Z" transform="translate(-249.672 -344.16)" fill="#fff"/>
  <path id="Path_42" data-name="Path 42" d="M64.508,367.193H54.578a.6.6,0,0,1,0-1.193h9.929a.6.6,0,0,1,0,1.193Z" transform="translate(-50.877 -344.16)" fill="#fff"/>
  <path id="Path_43" data-name="Path 43" d="M63.023,255.193H54.578a.6.6,0,0,1,0-1.193h8.445a.6.6,0,0,1,0,1.193Z" transform="translate(-50.877 -238.843)" fill="#fff"/>
</svg>
