<svg id="Group_246" data-name="Group 246" xmlns="http://www.w3.org/2000/svg" width="33" height="33" viewBox="0 0 33 33">
  <circle id="Ellipse_6" data-name="Ellipse 6" cx="16.5" cy="16.5" r="16.5" fill="#00c5b8"/>
  <g id="_1121351" data-name="1121351" transform="translate(6.848 6.848)">
    <path id="Path_15" data-name="Path 15" d="M1.8,38.149h.36L4.85,34.527H1.8a1.8,1.8,0,0,0-1.8,1.8v.022A1.8,1.8,0,0,0,1.8,38.149Zm0,0" transform="translate(0 -32.991)" fill="#fff"/>
    <path id="Path_16" data-name="Path 16" d="M82.178,5.557l-5-5.026a.45.45,0,0,0-.679.049L72.8,5.552h9.377Zm0,0" transform="translate(-69.525 -0.399)" fill="#fff"/>
    <path id="Path_17" data-name="Path 17" d="M234.9,38.149V35.2a.674.674,0,0,0-.675-.675H229.2l3.6,3.622Zm0,0" transform="translate(-218.886 -32.991)" fill="#fff"/>
    <path id="Path_18" data-name="Path 18" d="M13.493,127.089v-1.512a2.251,2.251,0,0,1,2.25-2.25H18.29v-3.015H13.858a.473.473,0,0,1-.225,0H1.8a2.686,2.686,0,0,1-1.8-.688v11.06a1.8,1.8,0,0,0,1.8,1.8H18.317v-3.15H15.748a2.248,2.248,0,0,1-2.254-2.245Zm0,0" transform="translate(0 -114.26)" fill="#fff"/>
    <path id="Path_19" data-name="Path 19" d="M324.385,221.926a.443.443,0,0,1-.279,0h-2.857a1.354,1.354,0,0,0-1.35,1.35v1.512a1.354,1.354,0,0,0,1.35,1.35h4.18v-4.212Zm-2.236,2.862a.45.45,0,0,1-.9,0v-1.512a.45.45,0,0,1,.9,0Zm0,0" transform="translate(-305.505 -211.959)" fill="#fff"/>
  </g>
</svg>
