<svg xmlns="http://www.w3.org/2000/svg" width="17" height="17" viewBox="0 0 17 17">
  <g id="Group_263" data-name="Group 263" transform="translate(-25 -618)">
    <g id="Group_63" data-name="Group 63" transform="translate(25 618)">
      <circle id="Ellipse_6" data-name="Ellipse 6" cx="8.5" cy="8.5" r="8.5" fill="#00c5b8"/>
    </g>
    <g id="_1906461" data-name="1906461" transform="translate(12 586.231)">
      <path id="Path_21" data-name="Path 21" d="M23.217,40.665a.557.557,0,0,1,.171-.4.579.579,0,0,1,.407-.162h1.279V37H17v4.908h6.217Zm-2.61-.44a.114.114,0,0,1,.023.161.119.119,0,0,1-.164.022l-1.021-.757a.114.114,0,0,1,0-.184l1.021-.757a.119.119,0,0,1,.164.022.114.114,0,0,1-.023.161l-.9.665Zm.717-1.771-.349,2.259a.117.117,0,0,1-.134.1.115.115,0,0,1-.1-.131l.349-2.259a.117.117,0,0,1,.134-.1.115.115,0,0,1,.1.131Zm1.3,1.2-1.021.757a.119.119,0,0,1-.164-.022.114.114,0,0,1,.023-.161l.9-.665-.9-.665a.114.114,0,0,1-.023-.161.119.119,0,0,1,.164-.022l1.021.757a.114.114,0,0,1,0,.184Z" transform="translate(0)" fill="#fff"/>
      <path id="Path_22" data-name="Path 22" d="M347,432.5a.331.331,0,0,0,.337.329H349.5a.331.331,0,0,0,.337-.329V432H347Zm1.419-.431a.351.351,0,1,1-.351.351A.351.351,0,0,1,348.419,432.065Z" transform="translate(-323.518 -387.426)" fill="#fff"/>
      <path id="Path_23" data-name="Path 23" d="M414.827,447.614a.121.121,0,1,0-.121-.121A.121.121,0,0,0,414.827,447.614Z" transform="translate(-389.925 -402.504)" fill="#fff"/>
      <path id="Path_24" data-name="Path 24" d="M17,305h6.1v1.112H17Z" transform="translate(0 -262.862)" fill="#fff"/>
      <path id="Path_25" data-name="Path 25" d="M349.5,211h-2.164a.332.332,0,0,0-.337.329v.323h2.838v-.323A.332.332,0,0,0,349.5,211Zm-.7.4h-.766a.115.115,0,0,1,0-.23h.766a.115.115,0,1,1,0,.23Z" transform="translate(-323.518 -170.662)" fill="#fff"/>
      <path id="Path_26" data-name="Path 26" d="M347,257.692v2.434h2.838V257H347Zm.85-.385h1.756a.115.115,0,1,1,0,.23H347.85a.115.115,0,1,1,0-.23Zm0,.556h1.756a.115.115,0,1,1,0,.23H347.85a.115.115,0,1,1,0-.23Zm0,.575h1.756a.115.115,0,1,1,0,.23H347.85a.115.115,0,1,1,0-.23Zm0,.575h1.756a.115.115,0,1,1,0,.23H347.85a.115.115,0,1,1,0-.23Zm0,.575h1.756a.115.115,0,0,1,0,.23H347.85a.115.115,0,1,1,0-.23Zm-.618-2.282h.257a.115.115,0,0,1,0,.23h-.257a.115.115,0,0,1,0-.23Zm0,.556h.257a.115.115,0,0,1,0,.23h-.257a.115.115,0,0,1,0-.23Zm0,.575h.257a.115.115,0,0,1,0,.23h-.257a.115.115,0,0,1,0-.23Zm0,.575h.257a.115.115,0,0,1,0,.23h-.257a.115.115,0,0,1,0-.23Zm0,.575h.257a.115.115,0,0,1,0,.23h-.257a.115.115,0,0,1,0-.23Z" transform="translate(-323.518 -215.782)" fill="#fff"/>
      <path id="Path_27" data-name="Path 27" d="M115.162,376.15a.115.115,0,0,0-.115-.115h-.758L114,375h-1.983l-.291,1.035h-.758a.115.115,0,1,0,0,.23h4.083A.115.115,0,0,0,115.162,376.15Z" transform="translate(-91.992 -331.519)" fill="#fff"/>
    </g>
  </g>
</svg>
