<svg xmlns="http://www.w3.org/2000/svg" width="33" height="33" viewBox="0 0 33 33">
  <g id="Group_261" data-name="Group 261" transform="translate(-36 -162)">
    <g id="Group_83" data-name="Group 83" transform="translate(36 162)">
      <circle id="Ellipse_6" data-name="Ellipse 6" cx="16.5" cy="16.5" r="16.5" fill="#00c5b8"/>
      <g id="Group_237" data-name="Group 237" transform="translate(6.603 6.64)">
        <path id="Path_20" data-name="Path 20" d="M18.622,7.609a.39.39,0,0,0-.292-.3.452.452,0,0,0-.4.114l-2.134,2.2L13.972,9l-.562-1.716,2.2-2.219a.454.454,0,0,0,.112-.412.441.441,0,0,0-.247-.32A5.232,5.232,0,0,0,13.411,3.9,5.517,5.517,0,0,0,9.435,5.55a5.7,5.7,0,0,0-1.662,4,5.519,5.519,0,0,0,.2,1.487L.741,18.452a2.658,2.658,0,0,0,0,3.683,2.5,2.5,0,0,0,1.82.755,2.6,2.6,0,0,0,1.82-.755l7.1-7.229a5.426,5.426,0,0,0,1.909.343h.022A5.555,5.555,0,0,0,17.387,13.6,5.771,5.771,0,0,0,18.622,7.609ZM3.459,21.037a1.154,1.154,0,0,1-1.707,0,1.2,1.2,0,0,1,0-1.739,1.191,1.191,0,0,1,1.707,0A1.267,1.267,0,0,1,3.459,21.037Z" transform="translate(0 -3.903)" fill="#fff"/>
      </g>
    </g>
  </g>
</svg>
