<svg id="technology" xmlns="http://www.w3.org/2000/svg" width="14.516" height="13.099" viewBox="0 0 14.516 13.099">
  <g id="Group_143" data-name="Group 143">
    <g id="Group_142" data-name="Group 142">
      <path id="Path_125" data-name="Path 125" d="M134.544,157a3.544,3.544,0,1,0,3.544,3.544A3.548,3.548,0,0,0,134.544,157Zm0,5.954a2.41,2.41,0,1,1,2.41-2.41A2.413,2.413,0,0,1,134.544,162.954Z" transform="translate(-127.286 -153.258)" fill="#00c5b8"/>
      <path id="Path_126" data-name="Path 126" d="M12.815,27.041H10.729a.175.175,0,0,1-.156-.094L10,25.734l0-.01A1.3,1.3,0,0,0,8.819,25H5.738a1.3,1.3,0,0,0-1.172.724l0,.01-.577,1.213a.175.175,0,0,1-.156.094H1.7a1.7,1.7,0,0,0-1.7,1.7V36.4a1.7,1.7,0,0,0,1.7,1.7H12.815a1.7,1.7,0,0,0,1.7-1.7V28.742A1.7,1.7,0,0,0,12.815,27.041Zm.567,9.356a.568.568,0,0,1-.567.567H1.7a.568.568,0,0,1-.567-.567V28.742a.568.568,0,0,1,.567-.567H3.827A1.3,1.3,0,0,0,5,27.451l0-.01.577-1.213a.175.175,0,0,1,.156-.094H8.819a.175.175,0,0,1,.156.094l.577,1.213,0,.01a1.3,1.3,0,0,0,1.172.724h2.086a.568.568,0,0,1,.567.567Z" transform="translate(0 -25)" fill="#00c5b8"/>
      <rect id="Rectangle_109" data-name="Rectangle 109" width="1" height="1" transform="translate(11 4.247)" fill="#00c5b8"/>
    </g>
  </g>
</svg>
